<?xml version="1.0" encoding="UTF-8"?><!DOCTYPE svg PUBLIC "-//W3C//DTD SVG 1.1//EN"    "http://www.w3.org/Graphics/SVG/1.1/DTD/svg11.dtd"><svg xmlns="http://www.w3.org/2000/svg" xmlns:xlink="http://www.w3.org/1999/xlink" version="1.1" width="183.00000000000003" height="182.99999999999997" font-size="1" viewBox="0 0 183 183" stroke="rgb(0,0,0)" stroke-opacity="1"><g><g fill="rgb(0,0,0)" fill-opacity="0.0"><g stroke="rgb(0,0,0)" stroke-opacity="1.0" stroke-width="0.7320000000000003" stroke-linecap="butt" stroke-linejoin="miter" font-size="1.0em" stroke-miterlimit="10.0"><g fill="rgb(255,255,255)" fill-opacity="1.0" stroke-width="0.0"><g fill="rgb(255,255,255)" fill-opacity="1.0"><g fill="rgb(255,255,255)" fill-opacity="1.0"><path d="M 182.99999999999997,182.99999999999994 l -2.0317081350640352e-14,-182.9999999999999 h -182.9999999999999 l -2.0317081350640352e-14,182.9999999999999 Z" /></g></g></g><g><g><g stroke-width="0.9999999999999996"><path d="M 51.50000000000007,11.5 v 159.99999999999994 M 91.50000000000006,11.5 v 159.99999999999994 M 131.50000000000006,11.5 v 159.99999999999994 M 171.50000000000003,131.5 l -159.99999999999994,-3.5527136788004997e-14 M 171.50000000000003,91.5 l -159.99999999999994,-3.5527136788004997e-14 M 171.50000000000006,51.500000000000014 l -159.99999999999994,-3.5527136788004997e-14 " /></g><g stroke-width="3.9999999999999982"><path d="M 10.000000000000085,172.99999999999994 h 162.99999999999991 v -162.99999999999991 h -162.99999999999991 Z" /></g><g stroke-width="2.9999999999999987" stroke-linecap="square"><path d="M 91.50000000000006,131.49999999999994 v 39.999999999999986 M 91.50000000000006,91.49999999999997 v 39.999999999999986 M 91.50000000000006,51.499999999999986 v 39.999999999999986 M 91.50000000000006,11.5 v 39.999999999999986 M 11.500000000000085,91.49999999999997 h 39.999999999999986 M 51.50000000000007,91.49999999999997 h 39.999999999999986 M 91.50000000000006,91.49999999999997 h 39.999999999999986 M 131.50000000000006,91.49999999999997 h 39.999999999999986 " /></g><g><g fill="rgb(0,0,0)" fill-opacity="1.0" stroke-width="0.0"><g fill="rgb(0,0,0)" fill-opacity="1.0"><g fill="rgb(0,0,0)" fill-opacity="1.0"><path d="M 143.80328559393433,41.02990732940184 ZM 157.3635214827296,41.02990732940184 h -11.727042965459136 v -1.8331929233361408 c 0.6200505475989888,-0.5930918281381632 1.5905644481887105,-1.4962089300758208 1.5905644481887105 -1.4962089300758208c 0.9705139005897216,-0.9031171019376576 2.0353833192923325,-1.9814658803706817 2.0353833192923325 -1.9814658803706817c 1.064869418702611,-1.078348778433024 2.129738837405222,-2.278011794439763 2.129738837405222 -2.278011794439763c 1.064869418702611,-1.1996630160067392 1.9140690817186177,-2.3723673125526528 1.9140690817186177 -2.3723673125526528c 0.8491996630160064,-1.1727042965459136 1.3883740522325185,-2.2510530749789375 1.3883740522325185 -2.2510530749789375c 0.539174389216512,-1.078348778433024 0.539174389216512,-1.9140690817186177 0.539174389216512 -1.9140690817186177c 0.0,-0.808761583824768 -0.3100252737994944,-1.428812131423757 -0.3100252737994944 -1.428812131423757c -0.3100252737994944,-0.6200505475989888 -0.8222409435551808,-1.0379106992417855 -0.8222409435551808 -1.0379106992417855c -0.5122156697556863,-0.4178601516427968 -1.1861836562763264,-0.6335299073294016 -1.1861836562763264 -0.6335299073294016c -0.67396798652064,-0.2156697556866048 -1.428812131423757,-0.2156697556866048 -1.428812131423757 -0.2156697556866048c -0.808761583824768,0.0 -1.5096882898062336,0.269587194608256 -1.5096882898062336 0.269587194608256c -0.7009267059814657,0.269587194608256 -1.1996630160067392,0.7548441449031168 -1.1996630160067392 0.7548441449031168c -0.49873631002527363,0.4852569502948608 -0.7818028643639424,1.1727042965459136 -0.7818028643639424 1.1727042965459136c -0.2830665543386688,0.6874473462510529 -0.2830665543386688,1.5231676495366464 -0.2830665543386688 1.5231676495366464h -1.887110362257792 c 0.0,-1.2401010951979776 0.4313395113732096,-2.2375737152485247 0.4313395113732096 -2.2375737152485247c 0.4313395113732096,-0.9974726200505473 1.1996630160067392,-1.6849199663016 1.1996630160067392 -1.6849199663016c 0.7683235046335296,-0.6874473462510529 1.7927548441449024,-1.0513900589721983 1.7927548441449024 -1.0513900589721983c 1.0244313395113727,-0.3639427127211456 2.2375737152485247,-0.3639427127211456 2.2375737152485247 -0.3639427127211456c 1.1861836562763264,0.0 2.210614995787699,0.33698399326032 2.210614995787699 0.33698399326032c 1.0244313395113727,0.33698399326032 1.7927548441449024,0.9974726200505473 1.7927548441449024 0.9974726200505473c 0.7683235046335296,0.6604886267902272 1.1996630160067392,1.6310025273799489 1.1996630160067392 1.6310025273799489c 0.4313395113732096,0.9705139005897216 0.4313395113732096,2.210614995787699 0.4313395113732096 2.210614995787699c 0.0,0.9705139005897216 -0.5122156697556863,2.075821398483571 -0.5122156697556863 2.075821398483571c -0.5122156697556863,1.1053074978938495 -1.34793597304128,2.2645324347093503 -1.34793597304128 2.2645324347093503c -0.8357203032855935,1.1592249368155008 -1.8601516427969664,2.3184498736310015 -1.8601516427969664 2.3184498736310015c -1.0244313395113727,1.1592249368155008 -2.075821398483571,2.1971356360572862 -2.075821398483571 2.1971356360572862c -1.0513900589721983,1.0379106992417855 -1.9949452401010945,1.9140690817186177 -1.9949452401010945 1.9140690817186177c -0.943555181128896,0.876158382476832 -1.5905644481887105,1.4962089300758208 -1.5905644481887105 1.4962089300758208h 9.62426284751474 v 1.617523167649536 Z" /></g></g></g><g fill="rgb(0,0,0)" fill-opacity="1.0" stroke-width="0.0"><g fill="rgb(0,0,0)" fill-opacity="1.0"><g fill="rgb(0,0,0)" fill-opacity="1.0"><path d="M 143.80328559393433,160.8277169334456 ZM 148.5210614995788,145.11078348778426 l 4.28643639427127,-2.9385004212299903 h 1.671440606571187 v 18.655433866891315 h -1.752316764953664 v -16.822240943555173 l -3.4507160909856767,2.2645324347093503 Z" /></g></g></g><g fill="rgb(0,0,0)" fill-opacity="1.0" stroke-width="0.0"><g fill="rgb(0,0,0)" fill-opacity="1.0"><g fill="rgb(0,0,0)" fill-opacity="1.0"><path d="M 103.80328559393435,80.82771693344563 ZM 108.52106149957882,65.1107834877843 l 4.28643639427127,-2.9385004212299903 h 1.671440606571187 v 18.655433866891315 h -1.752316764953664 v -16.822240943555173 l -3.4507160909856767,2.2645324347093503 Z" /></g></g></g><g fill="rgb(0,0,0)" fill-opacity="1.0" stroke-width="0.0"><g fill="rgb(0,0,0)" fill-opacity="1.0"><g fill="rgb(0,0,0)" fill-opacity="1.0"><path d="M 103.80328559393435,121.02990732940181 ZM 117.36352148272962,121.02990732940181 h -11.727042965459136 v -1.8331929233361408 c 0.6200505475989888,-0.5930918281381632 1.5905644481887105,-1.4962089300758208 1.5905644481887105 -1.4962089300758208c 0.9705139005897216,-0.9031171019376576 2.0353833192923325,-1.9814658803706817 2.0353833192923325 -1.9814658803706817c 1.064869418702611,-1.078348778433024 2.129738837405222,-2.278011794439763 2.129738837405222 -2.278011794439763c 1.064869418702611,-1.1996630160067392 1.9140690817186177,-2.3723673125526528 1.9140690817186177 -2.3723673125526528c 0.8491996630160064,-1.1727042965459136 1.3883740522325185,-2.2510530749789375 1.3883740522325185 -2.2510530749789375c 0.539174389216512,-1.078348778433024 0.539174389216512,-1.9140690817186177 0.539174389216512 -1.9140690817186177c 0.0,-0.808761583824768 -0.3100252737994944,-1.428812131423757 -0.3100252737994944 -1.428812131423757c -0.3100252737994944,-0.6200505475989888 -0.8222409435551808,-1.0379106992417855 -0.8222409435551808 -1.0379106992417855c -0.5122156697556863,-0.4178601516427968 -1.1861836562763264,-0.6335299073294016 -1.1861836562763264 -0.6335299073294016c -0.67396798652064,-0.2156697556866048 -1.428812131423757,-0.2156697556866048 -1.428812131423757 -0.2156697556866048c -0.808761583824768,0.0 -1.5096882898062336,0.269587194608256 -1.5096882898062336 0.269587194608256c -0.7009267059814657,0.269587194608256 -1.1996630160067392,0.7548441449031168 -1.1996630160067392 0.7548441449031168c -0.49873631002527363,0.4852569502948608 -0.7818028643639424,1.1727042965459136 -0.7818028643639424 1.1727042965459136c -0.2830665543386688,0.6874473462510529 -0.2830665543386688,1.5231676495366464 -0.2830665543386688 1.5231676495366464h -1.887110362257792 c 0.0,-1.2401010951979776 0.4313395113732096,-2.2375737152485247 0.4313395113732096 -2.2375737152485247c 0.4313395113732096,-0.9974726200505473 1.1996630160067392,-1.6849199663016 1.1996630160067392 -1.6849199663016c 0.7683235046335296,-0.6874473462510529 1.7927548441449024,-1.0513900589721983 1.7927548441449024 -1.0513900589721983c 1.0244313395113727,-0.3639427127211456 2.2375737152485247,-0.3639427127211456 2.2375737152485247 -0.3639427127211456c 1.1861836562763264,0.0 2.210614995787699,0.33698399326032 2.210614995787699 0.33698399326032c 1.0244313395113727,0.33698399326032 1.7927548441449024,0.9974726200505473 1.7927548441449024 0.9974726200505473c 0.7683235046335296,0.6604886267902272 1.1996630160067392,1.6310025273799489 1.1996630160067392 1.6310025273799489c 0.4313395113732096,0.9705139005897216 0.4313395113732096,2.210614995787699 0.4313395113732096 2.210614995787699c 0.0,0.9705139005897216 -0.5122156697556863,2.075821398483571 -0.5122156697556863 2.075821398483571c -0.5122156697556863,1.1053074978938495 -1.34793597304128,2.2645324347093503 -1.34793597304128 2.2645324347093503c -0.8357203032855935,1.1592249368155008 -1.8601516427969664,2.3184498736310015 -1.8601516427969664 2.3184498736310015c -1.0244313395113727,1.1592249368155008 -2.075821398483571,2.1971356360572862 -2.075821398483571 2.1971356360572862c -1.0513900589721983,1.0379106992417855 -1.9949452401010945,1.9140690817186177 -1.9949452401010945 1.9140690817186177c -0.943555181128896,0.876158382476832 -1.5905644481887105,1.4962089300758208 -1.5905644481887105 1.4962089300758208h 9.62426284751474 v 1.617523167649536 Z" /></g></g></g><g fill="rgb(0,0,0)" fill-opacity="1.0" stroke-width="0.0"><g fill="rgb(0,0,0)" fill-opacity="1.0"><g fill="rgb(0,0,0)" fill-opacity="1.0"><path d="M 63.80328559393435,80.82771693344563 ZM 73.50842459983156,80.82771693344563 v -4.340353833192921 h -8.76158382476832 v -1.6983993260320127 l 8.195450716090981,-12.616680707666381 h 2.3184498736310015 v 12.859309182813812 h 2.9924178601516416 v 1.4557708508845824 h -2.9924178601516416 v 4.340353833192921 h -1.752316764953664 ZM 73.50842459983156,80.82771693344563 ZM 73.50842459983156,75.03159224936813 v -11.106992417860148 h -5.39174389216512e-2 l -7.224936815501261,11.106992417860148 h 7.278854254422912 Z" /></g></g></g><g fill="rgb(0,0,0)" fill-opacity="1.0" stroke-width="0.0"><g fill="rgb(0,0,0)" fill-opacity="1.0"><g fill="rgb(0,0,0)" fill-opacity="1.0"><path d="M 63.80328559393435,120.84119629317603 ZM 69.35678180286442,110.2733782645324 c 0.8896377422072448,0.0 1.9814658803706817,-9.43555181128896e-2 1.9814658803706817 -9.43555181128896e-2c 1.0918281381634367,-9.43555181128896e-2 2.0353833192923325,-0.4448188711036224 2.0353833192923325 -0.4448188711036224c 0.943555181128896,-0.35046335299073283 1.5770850884582976,-1.0513900589721983 1.5770850884582976 -1.0513900589721983c 0.6335299073294016,-0.7009267059814657 0.6335299073294016,-1.9140690817186177 0.6335299073294016 -1.9140690817186177c 0.0,-0.808761583824768 -0.3774220724515584,-1.4422914911541695 -0.3774220724515584 -1.4422914911541695c -0.3774220724515584,-0.6335299073294016 -0.9705139005897216,-1.064869418702611 -0.9705139005897216 -1.064869418702611c -0.5930918281381632,-0.4313395113732096 -1.3344566133108673,-0.6604886267902272 -1.3344566133108673 -0.6604886267902272c -0.741364785172704,-0.2291491154170176 -1.4692502106149952,-0.2291491154170176 -1.4692502106149952 -0.2291491154170176c -0.7818028643639424,0.0 -1.482729570345408,0.2291491154170176 -1.482729570345408 0.2291491154170176c -0.7009267059814657,0.2291491154170176 -1.2401010951979776,0.67396798652064 -1.2401010951979776 0.67396798652064c -0.539174389216512,0.4448188711036224 -0.8896377422072448,1.078348778433024 -0.8896377422072448 1.078348778433024c -0.35046335299073283,0.6335299073294016 -0.4313395113732096,1.4422914911541695 -0.4313395113732096 1.4422914911541695h -1.887110362257792 c 0.0,-1.213142375737152 0.5122156697556863,-2.156697556866048 0.5122156697556863 -2.156697556866048c 0.5122156697556863,-0.943555181128896 1.34793597304128,-1.5770850884582976 1.34793597304128 -1.5770850884582976c 0.8357203032855935,-0.6335299073294016 1.9140690817186177,-0.9705139005897216 1.9140690817186177 -0.9705139005897216c 1.078348778433024,-0.33698399326032 2.1836562763268734,-0.33698399326032 2.1836562763268734 -0.33698399326032c 1.1322662173546751,0.0 2.210614995787699,0.33698399326032 2.210614995787699 0.33698399326032c 1.078348778433024,0.33698399326032 1.9275484414490305,0.9839932603201345 1.9275484414490305 0.9839932603201345c 0.8491996630160064,0.6470092670598144 1.361415332771693,1.6040438079191233 1.361415332771693 1.6040438079191233c 0.5122156697556863,0.9570345408593088 0.5122156697556863,2.1971356360572862 0.5122156697556863 2.1971356360572862c 0.0,0.8626790227464192 -0.404380791912384,1.5636057287278848 -0.404380791912384 1.5636057287278848c -0.404380791912384,0.7009267059814657 -1.0244313395113727,1.2266217354675648 -1.0244313395113727 1.2266217354675648c -0.6200505475989888,0.5256950294860991 -1.3883740522325185,0.8896377422072448 -1.3883740522325185 0.8896377422072448c -0.7683235046335296,0.3639427127211456 -1.5231676495366464,0.5256950294860991 -1.5231676495366464 0.5256950294860991v 5.39174389216512e-2 c 0.8357203032855935,0.1887110362257792 1.671440606571187,0.5930918281381632 1.671440606571187 0.5930918281381632c 0.8357203032855935,0.404380791912384 1.4962089300758208,0.9974726200505473 1.4962089300758208 0.9974726200505473c 0.6604886267902272,0.5930918281381632 1.064869418702611,1.3883740522325185 1.064869418702611 1.3883740522325185c 0.404380791912384,0.7952822240943552 0.404380791912384,1.7388374052232511 0.404380791912384 1.7388374052232511c 0.0,1.3209772535804545 -0.5661331086773376,2.3184498736310015 -0.5661331086773376 2.3184498736310015c -0.5661331086773376,0.9974726200505473 -1.482729570345408,1.6849199663016 -1.482729570345408 1.6849199663016c -0.9165964616680704,0.6874473462510529 -2.075821398483571,1.0379106992417855 -2.075821398483571 1.0379106992417855c -1.1592249368155008,0.35046335299073283 -2.345408593091827,0.35046335299073283 -2.345408593091827 0.35046335299073283c -1.1861836562763264,0.0 -2.278011794439763,-0.3639427127211456 -2.278011794439763 -0.3639427127211456c -1.0918281381634367,-0.3639427127211456 -1.9140690817186177,-1.0513900589721983 -1.9140690817186177 -1.0513900589721983c -0.8222409435551808,-0.6874473462510529 -1.3344566133108673,-1.671440606571187 -1.3344566133108673 -1.671440606571187c -0.5122156697556863,-0.9839932603201345 -0.539174389216512,-2.2510530749789375 -0.539174389216512 -2.2510530749789375h 1.887110362257792 c 0.0,0.8896377422072448 0.3639427127211456,1.5905644481887105 0.3639427127211456 1.5905644481887105c 0.3639427127211456,0.7009267059814657 0.9839932603201345,1.1727042965459136 0.9839932603201345 1.1727042965459136c 0.6200505475989888,0.471777590564448 1.4018534119629313,0.7144060657118785 1.4018534119629313 0.7144060657118785c 0.7818028643639424,0.2426284751474304 1.617523167649536,0.2426284751474304 1.617523167649536 0.2426284751474304c 0.8896377422072448,0.0 1.6983993260320127,-0.269587194608256 1.6983993260320127 -0.269587194608256c 0.808761583824768,-0.269587194608256 1.4018534119629313,-0.7818028643639424 1.4018534119629313 -0.7818028643639424c 0.5930918281381632,-0.5122156697556863 0.943555181128896,-1.2535804549283904 0.943555181128896 -1.2535804549283904c 0.35046335299073283,-0.741364785172704 0.35046335299073283,-1.6849199663016 0.35046335299073283 -1.6849199663016c 0.0,-1.2401010951979776 -0.67396798652064,-1.967986520640269 -0.67396798652064 -1.967986520640269c -0.67396798652064,-0.7278854254422912 -1.671440606571187,-1.1053074978938495 -1.671440606571187 -1.1053074978938495c -0.9974726200505473,-0.3774220724515584 -2.129738837405222,-0.4852569502948608 -2.129738837405222 -0.4852569502948608c -1.1322662173546751,-0.1078348778433024 -2.0488626790227453,-0.1078348778433024 -2.0488626790227453 -0.1078348778433024v -1.6983993260320127 Z" /></g></g></g><g fill="rgb(0,0,0)" fill-opacity="1.0" stroke-width="0.0"><g fill="rgb(0,0,0)" fill-opacity="1.0"><g fill="rgb(0,0,0)" fill-opacity="1.0"><path d="M 23.80328559393437,40.841196293176054 ZM 29.356781802864443,30.273378264532422 c 0.8896377422072448,0.0 1.9814658803706817,-9.43555181128896e-2 1.9814658803706817 -9.43555181128896e-2c 1.0918281381634367,-9.43555181128896e-2 2.0353833192923325,-0.4448188711036224 2.0353833192923325 -0.4448188711036224c 0.943555181128896,-0.35046335299073283 1.5770850884582976,-1.0513900589721983 1.5770850884582976 -1.0513900589721983c 0.6335299073294016,-0.7009267059814657 0.6335299073294016,-1.9140690817186177 0.6335299073294016 -1.9140690817186177c 0.0,-0.808761583824768 -0.3774220724515584,-1.4422914911541695 -0.3774220724515584 -1.4422914911541695c -0.3774220724515584,-0.6335299073294016 -0.9705139005897216,-1.064869418702611 -0.9705139005897216 -1.064869418702611c -0.5930918281381632,-0.4313395113732096 -1.3344566133108673,-0.6604886267902272 -1.3344566133108673 -0.6604886267902272c -0.741364785172704,-0.2291491154170176 -1.4692502106149952,-0.2291491154170176 -1.4692502106149952 -0.2291491154170176c -0.7818028643639424,0.0 -1.482729570345408,0.2291491154170176 -1.482729570345408 0.2291491154170176c -0.7009267059814657,0.2291491154170176 -1.2401010951979776,0.67396798652064 -1.2401010951979776 0.67396798652064c -0.539174389216512,0.4448188711036224 -0.8896377422072448,1.078348778433024 -0.8896377422072448 1.078348778433024c -0.35046335299073283,0.6335299073294016 -0.4313395113732096,1.4422914911541695 -0.4313395113732096 1.4422914911541695h -1.887110362257792 c 0.0,-1.213142375737152 0.5122156697556863,-2.156697556866048 0.5122156697556863 -2.156697556866048c 0.5122156697556863,-0.943555181128896 1.34793597304128,-1.5770850884582976 1.34793597304128 -1.5770850884582976c 0.8357203032855935,-0.6335299073294016 1.9140690817186177,-0.9705139005897216 1.9140690817186177 -0.9705139005897216c 1.078348778433024,-0.33698399326032 2.1836562763268734,-0.33698399326032 2.1836562763268734 -0.33698399326032c 1.1322662173546751,0.0 2.210614995787699,0.33698399326032 2.210614995787699 0.33698399326032c 1.078348778433024,0.33698399326032 1.9275484414490305,0.9839932603201345 1.9275484414490305 0.9839932603201345c 0.8491996630160064,0.6470092670598144 1.361415332771693,1.6040438079191233 1.361415332771693 1.6040438079191233c 0.5122156697556863,0.9570345408593088 0.5122156697556863,2.1971356360572862 0.5122156697556863 2.1971356360572862c 0.0,0.8626790227464192 -0.404380791912384,1.5636057287278848 -0.404380791912384 1.5636057287278848c -0.404380791912384,0.7009267059814657 -1.0244313395113727,1.2266217354675648 -1.0244313395113727 1.2266217354675648c -0.6200505475989888,0.5256950294860991 -1.3883740522325185,0.8896377422072448 -1.3883740522325185 0.8896377422072448c -0.7683235046335296,0.3639427127211456 -1.5231676495366464,0.5256950294860991 -1.5231676495366464 0.5256950294860991v 5.39174389216512e-2 c 0.8357203032855935,0.1887110362257792 1.671440606571187,0.5930918281381632 1.671440606571187 0.5930918281381632c 0.8357203032855935,0.404380791912384 1.4962089300758208,0.9974726200505473 1.4962089300758208 0.9974726200505473c 0.6604886267902272,0.5930918281381632 1.064869418702611,1.3883740522325185 1.064869418702611 1.3883740522325185c 0.404380791912384,0.7952822240943552 0.404380791912384,1.7388374052232511 0.404380791912384 1.7388374052232511c 0.0,1.3209772535804545 -0.5661331086773376,2.3184498736310015 -0.5661331086773376 2.3184498736310015c -0.5661331086773376,0.9974726200505473 -1.482729570345408,1.6849199663016 -1.482729570345408 1.6849199663016c -0.9165964616680704,0.6874473462510529 -2.075821398483571,1.0379106992417855 -2.075821398483571 1.0379106992417855c -1.1592249368155008,0.35046335299073283 -2.345408593091827,0.35046335299073283 -2.345408593091827 0.35046335299073283c -1.1861836562763264,0.0 -2.278011794439763,-0.3639427127211456 -2.278011794439763 -0.3639427127211456c -1.0918281381634367,-0.3639427127211456 -1.9140690817186177,-1.0513900589721983 -1.9140690817186177 -1.0513900589721983c -0.8222409435551808,-0.6874473462510529 -1.3344566133108673,-1.671440606571187 -1.3344566133108673 -1.671440606571187c -0.5122156697556863,-0.9839932603201345 -0.539174389216512,-2.2510530749789375 -0.539174389216512 -2.2510530749789375h 1.887110362257792 c 0.0,0.8896377422072448 0.3639427127211456,1.5905644481887105 0.3639427127211456 1.5905644481887105c 0.3639427127211456,0.7009267059814657 0.9839932603201345,1.1727042965459136 0.9839932603201345 1.1727042965459136c 0.6200505475989888,0.471777590564448 1.4018534119629313,0.7144060657118785 1.4018534119629313 0.7144060657118785c 0.7818028643639424,0.2426284751474304 1.617523167649536,0.2426284751474304 1.617523167649536 0.2426284751474304c 0.8896377422072448,0.0 1.6983993260320127,-0.269587194608256 1.6983993260320127 -0.269587194608256c 0.808761583824768,-0.269587194608256 1.4018534119629313,-0.7818028643639424 1.4018534119629313 -0.7818028643639424c 0.5930918281381632,-0.5122156697556863 0.943555181128896,-1.2535804549283904 0.943555181128896 -1.2535804549283904c 0.35046335299073283,-0.741364785172704 0.35046335299073283,-1.6849199663016 0.35046335299073283 -1.6849199663016c 0.0,-1.2401010951979776 -0.67396798652064,-1.967986520640269 -0.67396798652064 -1.967986520640269c -0.67396798652064,-0.7278854254422912 -1.671440606571187,-1.1053074978938495 -1.671440606571187 -1.1053074978938495c -0.9974726200505473,-0.3774220724515584 -2.129738837405222,-0.4852569502948608 -2.129738837405222 -0.4852569502948608c -1.1322662173546751,-0.1078348778433024 -2.0488626790227453,-0.1078348778433024 -2.0488626790227453 -0.1078348778433024v -1.6983993260320127 Z" /></g></g></g><g fill="rgb(0,0,0)" fill-opacity="1.0" stroke-width="0.0"><g fill="rgb(0,0,0)" fill-opacity="1.0"><g fill="rgb(0,0,0)" fill-opacity="1.0"><path d="M 23.80328559393437,160.8277169334456 ZM 33.508424599831585,160.8277169334456 v -4.340353833192921 h -8.76158382476832 v -1.6983993260320127 l 8.195450716090981,-12.616680707666381 h 2.3184498736310015 v 12.859309182813812 h 2.9924178601516416 v 1.4557708508845824 h -2.9924178601516416 v 4.340353833192921 h -1.752316764953664 ZM 33.508424599831585,160.8277169334456 ZM 33.508424599831585,155.0315922493681 v -11.106992417860148 h -5.39174389216512e-2 l -7.224936815501261,11.106992417860148 h 7.278854254422912 Z" /></g></g></g></g></g></g></g></g></g></svg>